HIERARCHY
ROOT Pelvis
{
	OFFSET 0.000000 0.000000 0.000000
	CHANNELS 6 Xposition Yposition Zposition Zrotation Yrotation Xrotation 
	JOINT Left_hip
	{
		OFFSET 0.070241 -0.085575 -0.010474
		CHANNELS 3 Zrotation Yrotation Xrotation
		JOINT Left_knee
		{
			OFFSET 0.032125 -0.356873 -0.000555
			CHANNELS 3 Zrotation Yrotation Xrotation
			JOINT Left_ankle
			{
				OFFSET -0.010961 -0.370212 -0.042278
				CHANNELS 3 Zrotation Yrotation Xrotation
				JOINT Left_foot
				{
					OFFSET 0.023322 -0.052281 0.110104
					CHANNELS 3 Zrotation Yrotation Xrotation
					End Site
					{
						OFFSET 0.000000 0.000000 0.000000
					}
				}
			}
		}
	}
	JOINT Right_hip
	{
		OFFSET -0.068518 -0.084320 -0.007402
		CHANNELS 3 Zrotation Yrotation Xrotation
		JOINT Right_knee
		{
			OFFSET -0.037345 -0.364815 -0.003619
			CHANNELS 3 Zrotation Yrotation Xrotation
			JOINT Right_ankle
			{
				OFFSET 0.013394 -0.370006 -0.039954
				CHANNELS 3 Zrotation Yrotation Xrotation
				JOINT Right_foot
				{
					OFFSET -0.019600 -0.045455 0.113223
					CHANNELS 3 Zrotation Yrotation Xrotation
					End Site
					{
						OFFSET 0.000000 0.000000 0.000000
					}
				}
			}
		}
	}
	JOINT Spine1
	{
		OFFSET -0.002404 0.098129 -0.018169
		CHANNELS 3 Zrotation Yrotation Xrotation
		JOINT Spine2
		{
			OFFSET 0.003989 0.127209 -0.001742
			CHANNELS 3 Zrotation Yrotation Xrotation
			JOINT Spine3
			{
				OFFSET 0.001758 0.046641 0.023475
				CHANNELS 3 Zrotation Yrotation Xrotation
				JOINT Neck
				{
					OFFSET -0.003759 0.194901 -0.039982
					CHANNELS 3 Zrotation Yrotation Xrotation
					JOINT Head
					{
						OFFSET 0.003999 0.063756 0.047665
						CHANNELS 3 Zrotation Yrotation Xrotation
						End Site
						{
							OFFSET 0.000000 0.000000 0.000000
						}
					}
				}
				JOINT Left_collar
				{
					OFFSET 0.071816 0.109048 -0.028973
					CHANNELS 3 Zrotation Yrotation Xrotation
					JOINT Left_shoulder
					{
						OFFSET 0.084027 0.032269 -0.006525
						CHANNELS 3 Zrotation Yrotation Xrotation
						JOINT Left_elbow
						{
							OFFSET 0.243854 -0.013992 -0.025905
							CHANNELS 3 Zrotation Yrotation Xrotation
							JOINT Left_wrist
							{
								OFFSET 0.232156 0.008196 -0.000339
								CHANNELS 3 Zrotation Yrotation Xrotation
								JOINT Left_palm
								{
									OFFSET 0.075377 -0.009461 -0.012494
									CHANNELS 3 Zrotation Yrotation Xrotation
									End Site
									{
										OFFSET 0.000000 0.000000 0.000000
									}
								}
							}
						}
					}
				}
				JOINT Right_collar
				{
					OFFSET -0.073768 0.107001 -0.033755
					CHANNELS 3 Zrotation Yrotation Xrotation
					JOINT Right_shoulder
					{
						OFFSET -0.086837 0.032868 -0.009431
						CHANNELS 3 Zrotation Yrotation Xrotation
						JOINT Right_elbow
						{
							OFFSET -0.236446 -0.012544 -0.018747
							CHANNELS 3 Zrotation Yrotation Xrotation
							JOINT Right_wrist
							{
								OFFSET -0.236110 0.006124 -0.004327
								CHANNELS 3 Zrotation Yrotation Xrotation
								JOINT Right_palm
								{
									OFFSET -0.074800 -0.006875 -0.009610
									CHANNELS 3 Zrotation Yrotation Xrotation
									End Site
									{
										OFFSET 0.000000 0.000000 0.000000
									}
								}
							}
						}
					}
				}
			}
		}
	}
}
MOTION
Frames: 16
Frame Time: 0.100000
0.000000 0.000000 0.000000 177.586223 16.417934 -9.753109 5.751763 7.610199 2.002779 1.256801 -7.244654 -6.305032 -4.678259 24.288172 1.718935 11.221609 -4.166843 -3.974823 -1.735938 -6.102054 0.825060 -1.340802 6.432997 -3.156484 1.141912 -19.855482 -2.283741 3.133245 4.879360 3.413147 0.068548 2.606485 -1.090316 1.337442 -1.875855 -5.075368 0.664337 2.836266 -0.309377 0.452926 13.975072 3.376715 2.339453 15.158168 5.158881 -4.775331 5.240208 -11.038782 2.896692 -15.261970 -13.286027 3.857885 9.048302 -0.039590 -2.425970 -0.425211 33.248320 -1.957991 -7.543578 -0.570759 8.231515 -0.967583 -6.310029 -5.672467 17.345779 -20.244898 -9.553131 -5.321209 -3.674937 0.247160 -1.628402 36.948095 8.096876 8.936640 -4.425315 
0.000459 0.000054 -0.000412 177.623377 16.578766 -9.832488 5.729013 7.553570 1.988186 1.224656 -7.328625 -6.224742 -4.669163 24.383466 1.804542 11.112421 -4.382845 -4.007165 -1.762134 -6.168678 0.872292 -1.355670 6.644049 -3.084123 1.323088 -20.287246 -2.441192 2.641468 5.416604 3.520762 0.028986 2.613931 -0.946870 1.197405 -1.909433 -5.252134 0.471163 2.790221 -0.154847 -0.217534 10.848204 3.076014 2.280399 12.516760 5.656208 -4.610674 5.343116 -10.880554 3.152239 -15.336378 -13.565644 3.690424 9.089548 -0.198800 -2.233363 -0.190328 33.622559 -1.699122 -7.616436 -0.531542 8.329112 -0.737190 -6.507741 -5.725127 17.083687 -20.214483 -9.473120 -5.578756 -3.527610 -0.053990 -1.674371 37.099800 7.759381 8.928947 -4.394030 
0.000829 0.000185 -0.001244 177.685369 16.737023 -9.940241 5.677587 7.495296 2.007233 1.200331 -7.360110 -6.179315 -4.716715 24.433166 1.894668 11.095734 -4.670088 -3.951710 -1.819668 -6.242224 0.864372 -1.356431 6.857879 -2.888662 1.639119 -20.807855 -2.695833 1.843391 6.181366 3.683552 -0.079841 2.583720 -0.813626 1.106784 -1.980943 -5.380027 0.160808 2.689609 -0.041321 -1.078427 5.292376 3.128354 2.288120 7.762938 6.590313 -4.503689 5.739548 -10.576041 3.461167 -15.565151 -13.828374 3.485671 8.824698 -0.331189 -2.136485 0.006545 34.232321 -1.305198 -7.683927 -0.504206 8.724130 -0.350079 -6.925872 -5.781650 17.050254 -20.063513 -9.365631 -5.698348 -3.453675 -0.418565 -1.552498 37.244354 7.102653 8.799017 -4.218121 
0.000884 0.000326 -0.002192 177.759200 16.682336 -10.052709 5.624658 7.471588 2.062279 1.175595 -7.268605 -6.097226 -4.698846 24.405653 1.904847 11.008080 -4.710747 -3.829695 -1.894203 -6.262220 0.848674 -1.342334 6.926460 -2.728152 1.849804 -20.909456 -2.815752 1.439674 6.478998 3.770208 -0.112131 2.592710 -0.700502 1.046137 -1.993287 -5.308664 -0.004848 2.648493 0.024619 -1.472052 2.348875 3.545660 2.308224 5.090772 6.924273 -4.518865 5.878754 -10.428481 3.459208 -15.572546 -13.935186 3.427510 8.874777 -0.705122 -2.258909 0.005697 34.461744 -1.113308 -7.677058 -0.563528 8.907164 -0.040871 -7.077437 -5.598531 16.889916 -19.789628 -9.317883 -5.225324 -3.321103 -0.427720 -1.305210 37.171785 6.746260 8.639267 -4.141133 
0.000804 0.000640 -0.003331 177.846831 16.646632 -10.245204 5.549099 7.446552 2.217862 1.168084 -7.150717 -6.060890 -4.478421 24.264767 2.098199 10.603364 -4.620350 -4.088359 -1.985368 -6.258551 0.968836 -1.381448 6.887184 -2.664004 2.072411 -20.935389 -2.953469 1.064207 6.816000 4.042015 -0.071820 2.598240 -0.685030 0.977935 -1.988451 -5.054701 -0.160659 2.660512 0.259441 -1.833301 1.106735 3.823848 2.111110 4.232914 7.534475 -4.948913 6.149736 -9.885419 1.782549 -15.334695 -13.473051 4.416525 6.678181 -1.754047 -0.468250 -0.467734 32.642359 -1.634765 -7.673457 -0.498273 9.349954 -0.125286 -6.713915 -3.790255 16.894458 -19.230478 -10.238665 -3.720313 -4.072435 -2.310788 -0.547104 35.924718 7.128069 8.585361 -3.933415 
0.001230 0.002249 -0.005203 178.084449 16.600624 -10.433409 5.366953 7.312000 2.241512 1.129442 -6.462668 -5.828980 -4.224834 23.533610 2.169801 10.162467 -4.175721 -4.483525 -2.200014 -6.002047 0.943518 -1.354380 6.258205 -2.421106 1.647941 -20.440240 -3.173092 1.526826 7.194523 4.932604 0.001720 2.711809 -0.786238 0.810882 -1.801507 -3.950606 -0.611749 2.718806 0.007110 -1.720394 0.411398 3.611329 1.508993 3.812439 9.296220 -8.182020 6.751219 -9.134452 -4.047775 -15.899098 -10.529222 6.329288 1.505893 -7.076952 4.667914 -2.690187 24.484959 -3.543792 -7.420794 0.263834 12.060889 -0.507050 -5.816964 2.487929 16.957722 -15.694597 -11.151296 -0.589997 -8.372409 -7.393581 1.612208 28.734106 8.402663 8.512976 -2.646127 
0.003415 0.006031 -0.008091 177.959472 16.308216 -10.350889 5.505076 7.824241 1.821055 1.747309 -6.642293 -5.515455 -3.218585 19.077612 1.799535 5.108677 -0.360641 -5.490735 -2.091022 -6.288488 -0.042441 -1.320082 6.452379 -1.315922 2.449518 -17.020762 -3.801122 3.686539 6.313601 7.844575 0.499932 3.086099 -1.748210 0.638738 -1.278585 0.499327 -1.165935 2.995383 -3.456218 -0.810203 -0.349565 2.565507 -0.131200 2.770653 12.299789 -14.876647 3.575714 -9.327628 -15.588075 -13.383070 -3.051104 7.296670 -4.156721 -12.931808 13.046878 -2.006379 17.090533 -11.018628 -12.185213 -7.277914 18.376126 2.177180 -1.935308 11.885800 13.606398 -8.995367 -9.142470 3.183626 -7.152902 -14.675801 2.514470 23.004102 14.314195 12.579850 -7.575456 
0.007075 0.007805 -0.012141 178.206535 16.464181 -10.794139 5.566139 7.465879 1.914033 1.539549 -5.199970 -5.230723 -2.364970 17.180107 2.090491 4.515168 1.655393 -5.498159 -2.276175 -5.747800 -0.035385 -1.213692 4.465967 -0.936537 0.858628 -14.822411 -3.549925 5.139513 5.072120 8.701417 0.532058 3.455776 -1.468716 0.615875 -1.272946 4.031419 -1.723731 3.033807 -5.518865 -0.533803 -1.261619 1.037250 -1.069665 3.029189 13.772946 -22.668967 -1.112281 -5.608389 -32.613219 -14.850891 5.517939 7.139930 -1.452923 -18.585065 11.862592 2.527429 8.724528 -13.860321 -12.915959 -7.182682 25.847758 6.722236 2.157134 26.817974 15.638270 0.853683 -7.456859 1.181606 -4.837105 -14.002235 -0.227290 22.068656 16.547135 13.971706 -7.529420 
0.008748 0.008290 -0.017849 178.488689 16.654521 -11.079633 5.372214 7.305223 1.950480 1.474783 -3.617026 -5.129911 -1.628001 15.127076 2.643810 4.607015 3.882706 -5.944009 -2.472089 -5.149889 -0.413502 -1.371340 2.702485 -0.214911 -0.013228 -12.768869 -3.322586 5.052263 3.753034 8.218694 0.499490 3.823751 -0.623311 0.263688 -1.617064 7.933366 -2.208582 3.331610 -8.103316 -0.737645 -2.378796 -2.089407 -1.090610 3.510167 15.108143 -29.656997 -10.408336 0.200816 -48.913147 -16.489643 17.942977 6.688142 -6.098502 -14.289118 14.083507 6.336253 2.900596 -17.913954 -14.922952 -9.553778 32.107490 15.183264 7.622069 42.023754 18.030363 12.217872 -5.523699 7.963379 -4.204554 -16.184915 -3.088326 11.855224 20.256608 15.481379 -7.976928 
0.009683 0.009030 -0.025472 178.528104 17.083022 -10.767989 5.037608 6.813372 1.221529 1.524419 -1.816487 -5.265374 -1.209686 13.273644 3.607820 5.339158 5.970125 -6.847596 -2.685841 -4.638814 -1.190998 -1.376435 1.185078 -0.161124 -0.137792 -11.392138 -2.612817 4.171839 2.725445 6.887601 0.403206 3.767574 0.319778 0.125905 -2.445994 7.553556 -2.189140 3.501571 -8.174897 -2.097040 -1.895208 -3.282718 -0.253323 5.883721 15.825871 -29.124228 -18.014720 2.115993 -58.250329 -20.457653 29.395162 5.550359 -24.606357 -12.333662 19.027326 10.227670 -12.040085 -22.660006 -15.538899 -10.405595 30.468533 21.865739 8.111435 52.594120 21.964012 23.454898 -0.283632 29.729534 -5.066393 -21.601518 -7.138639 -8.170029 24.065160 15.724283 -7.563274 
0.009732 0.008605 -0.029499 178.415354 16.887206 -10.500128 4.971089 6.672639 0.864788 1.661241 -0.880941 -5.655774 -0.322124 12.066261 4.548366 4.085996 7.531248 -8.147921 -2.635955 -4.541972 -1.466614 -1.317884 0.583440 -0.665427 -0.359891 -10.775444 -2.094654 5.232790 2.106389 7.043467 0.390694 3.726936 0.303562 0.766659 -2.695340 5.598917 -1.573644 3.970067 -6.846323 -3.204139 2.337864 -1.728507 -0.523461 10.645015 15.754872 -22.838983 -21.299439 0.386949 -60.477358 -23.878802 34.264064 11.446744 -42.998414 -17.387991 33.054067 17.731622 -24.067455 -27.016265 -16.161545 -10.766278 24.896826 24.388966 6.022898 56.741768 26.706813 28.486650 -2.963615 46.798647 -10.322034 -36.706195 -13.411482 -20.530968 28.319838 15.976910 -7.628359 
0.009367 0.009017 -0.029406 178.463538 17.155852 -10.605788 4.990196 6.579642 0.633107 1.552164 -0.553344 -5.037669 -2.065233 12.100672 4.103092 7.090971 7.129372 -8.550914 -2.826135 -4.551728 -1.420937 -1.382911 -0.682033 -0.422549 1.868170 -9.471914 -2.548037 1.374667 1.259074 5.295701 0.576552 4.043948 -0.579405 0.962973 -2.525889 6.957356 -1.324272 3.844631 -8.040748 -1.374054 10.132212 -0.058419 -0.883233 15.134708 17.139590 -23.502456 -18.255171 -0.912410 -54.858964 -25.502795 27.856350 12.593836 -41.334467 -4.816276 18.738560 1.837317 -6.846979 -21.748673 -13.919107 -9.679973 26.216476 21.653640 5.785870 53.250802 27.918214 23.862587 -9.656785 46.359623 -6.992930 -20.444651 -1.197792 -10.028584 22.878162 14.011995 -5.711311 
0.007348 0.008588 -0.025242 178.319939 18.143265 -11.267677 5.127984 6.669465 1.427100 1.353627 -1.735496 -5.115854 -2.132129 12.147703 3.711570 6.795936 7.027366 -8.142048 -3.023165 -4.994593 -0.154847 -1.329229 -1.215236 -0.619410 1.658408 -9.342470 -3.030730 2.146598 0.300870 5.909214 0.575981 4.068765 -1.481130 1.259636 -2.410382 8.403119 -1.180637 3.561101 -7.822429 -0.067746 14.638393 2.421256 -1.216792 18.702585 15.480663 -24.617990 -14.386608 -0.888568 -52.398713 -22.082048 24.513451 11.560463 -36.182439 -1.688684 13.839351 -0.075305 -0.889260 -20.687330 -13.554685 -10.437909 26.864981 17.261564 5.924271 51.493399 24.059369 20.484821 -10.542461 41.942066 -7.449869 -14.655513 0.473351 -7.564250 22.550146 13.546151 -5.473545 
0.005195 0.008976 -0.021652 178.285826 19.090526 -11.117549 4.985055 6.634846 1.378024 1.199119 -3.320597 -5.190831 -1.527998 12.701401 3.353439 4.726259 6.168638 -7.632157 -3.158294 -5.346729 0.128930 -1.423592 -1.004180 -0.573299 0.987321 -10.368945 -3.722558 4.759104 0.397947 7.826828 0.543659 3.907624 -1.865574 1.375490 -1.741008 8.549558 -1.336038 3.176616 -7.091299 0.511282 15.061335 3.968583 -2.304816 19.161806 13.987390 -26.310416 -7.991892 -0.404483 -52.150219 -14.264161 22.837870 8.615664 -25.042925 2.382190 17.371149 -0.283138 5.066142 -19.805384 -14.036677 -11.598878 28.572612 10.195745 6.696987 49.954473 15.235876 17.890556 -7.244825 32.129160 -0.916456 -16.081405 1.530743 -1.794964 22.959303 14.027433 -6.220497 
0.001883 0.008388 -0.015889 178.221938 19.749920 -10.708212 4.917375 6.626112 1.258376 0.982252 -4.989481 -5.255868 -0.967274 13.442816 2.995280 2.133671 4.902165 -7.199328 -3.219113 -5.711835 0.308718 -1.518984 -0.524717 -0.522063 1.106501 -11.902853 -4.583067 5.777983 1.208847 9.987695 0.679420 3.850052 -1.821293 1.268516 -0.631453 7.876478 -1.588922 2.745109 -5.295075 0.945562 15.542481 5.154860 -3.919486 17.558743 10.713040 -27.273837 2.479050 -1.627780 -50.824765 -4.107685 17.100650 7.100676 -9.485202 1.539702 11.314147 -1.416833 11.198940 -17.024964 -13.038370 -11.746047 29.903414 0.022223 6.223715 49.010705 3.670157 12.563226 -7.673343 17.012733 1.479071 -11.189686 2.166255 7.433584 21.539533 13.513826 -6.647886 
-0.003900 0.006685 -0.009913 178.051557 18.988117 -11.010631 4.972551 7.201318 2.201998 1.067531 -6.967278 -5.463382 0.447445 14.866513 3.153988 -2.622471 3.220525 -8.094955 -3.022698 -6.045922 1.017020 -1.840708 1.387249 -0.452778 2.346481 -14.320580 -5.440864 5.924731 3.543694 11.928488 1.090401 3.857694 -1.568912 1.048690 0.740708 6.750390 -1.382717 2.853653 -1.774379 0.786382 16.940848 6.920841 -5.454246 15.201279 5.101478 -22.616368 11.283585 -1.444822 -49.902337 7.369674 8.642567 6.696731 4.673981 -1.107954 7.125574 0.706479 13.698714 -15.069472 -12.395106 -13.011477 26.736754 -6.801978 8.078781 50.289598 -6.797738 6.756477 -9.711070 -1.413272 5.161769 -7.269225 0.217091 11.833284 20.411167 12.646067 -7.728215 
